<svg width="163" height="225" viewBox="0 0 163 225" fill="none" xmlns="http://www.w3.org/2000/svg">
<path d="M77.2575 0.607422C77.2575 0.607422 44.8824 2.03795 37.6545 35.6177C36.4499 41.3398 36.3746 49.1701 33.7394 53.1605C25.2315 65.96 39.2356 67.5411 37.9557 76.4254C36.4499 86.8909 47.5176 85.3098 53.9173 85.2345L57.1549 84.9333C57.1549 84.9333 57.1549 78.7595 57.3054 79.1359C58.2842 82.1476 59.0371 84.7827 59.5642 84.7827C63.1028 85.0839 64.9099 86.665 66.9427 87.1168C73.493 88.3967 98.4143 84.331 98.4143 84.331C98.4143 84.331 102.706 77.2536 102.706 77.4042C102.631 81.3193 101.426 84.858 101.426 84.858C101.426 84.858 106.32 85.7615 107.976 85.3098C107.976 85.3098 116.71 86.5897 122.056 79.6629C124.013 77.1031 122.056 71.5315 123.938 67.1647C125.293 64.0024 129.961 60.3132 130.789 56.0216C132.521 47.589 126.423 45.5561 125.971 42.7704C121.679 17.4726 114.978 0.607422 77.2575 0.607422Z" fill="#AC5154"/>
<path d="M58.2849 100.97C58.2849 100.97 25.3827 88.4718 19.8864 100.368C14.4655 111.963 -7.14304 226.932 3.62357 224.673C18.9076 221.36 33.5894 185.221 42.3232 152.168C46.4642 136.733 58.2849 100.97 58.2849 100.97Z" fill="#EDAF78"/>
<path d="M118.668 97.4316C118.668 97.4316 141.632 87.945 147.354 99.4645C159.627 123.934 160.38 166.398 162.036 185.447C163.391 201.107 162.412 215.262 157.895 219.704C155.787 221.812 137.115 215.036 134.555 202.387C132.296 191.094 130.64 160.676 122.659 137.637C117.464 122.504 118.668 97.4316 118.668 97.4316Z" fill="#EDAF78"/>
<path d="M66.3412 86.6647C66.3412 86.6647 65.2872 92.8386 59.7909 96.302C54.2947 99.8406 46.3891 103.605 32.9873 109.177C19.8867 114.598 24.103 142.531 40.3658 166.097L52.1112 202.839L102.33 209.013C102.33 209.013 109.332 185.446 124.089 165.193C155.034 122.804 136.814 111.059 131.92 107.445C126.725 103.605 119.271 99.4642 106.622 95.1726C96.9846 91.9351 96.4576 85.7612 96.4576 85.7612L66.3412 86.6647Z" fill="#EDAF78"/>
<path d="M66.3408 53.1604H96.4572V107.445H66.3408V53.1604Z" fill="#EDAF78"/>
<path d="M64.3835 78.6843C64.3835 78.6843 77.7853 89.7521 93.4458 80.2654L97.9633 78.7596C97.9633 78.7596 92.1659 94.7966 82.0769 95.0225C75.376 95.0978 65.5882 88.0957 64.3835 78.6843Z" fill="black"/>
<path d="M46.8403 95.2482L37.2031 146.898C37.2031 146.898 26.2859 163.612 43.8287 174.379C44.6569 174.906 43.151 214.283 43.151 214.283L127.628 214.66C127.628 214.66 128.983 177.315 129.284 176.939C140.728 158.944 129.435 149.759 129.435 149.759L121.604 95.0977L112.645 97.3564C112.645 97.3564 101.2 117.459 87.0457 118.513C66.3406 120.019 55.6494 97.6576 55.6494 97.6576L46.8403 95.2482Z" fill="black"/>
<path d="M80.8721 5.65186C98.9419 5.65186 110.913 15.8161 110.913 38.1023C110.913 60.3131 98.6408 89.526 80.8721 86.2885C59.9412 82.4487 52.3368 65.6588 53.3909 43.2221C54.4449 21.0112 62.8775 5.65186 80.8721 5.65186Z" fill="#EDAF78"/>
<path d="M108.956 49.9227C108.956 49.9227 113.021 40.3608 118.593 44.05C124.089 47.8146 116.334 65.2068 105.417 64.6045L108.956 49.9227Z" fill="#EDAF78"/>
<path d="M50.9819 49.9227C50.9819 49.9227 47.0668 40.3608 41.7964 44.05C36.526 47.8146 44.8833 65.8844 55.2735 65.3574L50.9819 49.9227Z" fill="#EDAF78"/>
<path d="M51.7341 58.2048C51.8094 58.1295 51.7341 58.2048 51.8094 58.1295C51.8094 58.1295 51.7341 58.0542 51.7341 57.9789C51.6839 57.5272 51.6337 57.0504 51.5835 56.5484C51.2823 55.2685 50.9059 53.9885 50.3789 52.7839C49.8518 51.5792 49.1742 50.4498 48.2707 49.6216C48.0699 49.4209 47.8441 49.2201 47.5931 49.0193C47.2417 48.7683 46.8903 48.5425 46.539 48.3417C46.288 48.1911 46.0622 48.0656 45.8614 47.9652C45.6104 47.8648 45.3595 47.7896 45.1085 47.7394C43.5274 47.3629 42.5486 47.8899 41.9463 48.7934C41.1181 50.0734 41.1933 52.1815 41.5698 53.4615C41.6451 53.7626 41.7204 53.9885 41.7957 54.2144C41.9462 54.5156 42.0968 54.8167 42.3227 55.3438C42.3227 55.3939 42.3478 55.419 42.398 55.419C42.4482 55.3689 42.4733 55.3187 42.4733 55.2685C42.2474 54.7414 42.1721 54.4403 42.0968 54.1391C42.0216 53.9132 41.9462 53.6873 41.8709 53.3862C41.6451 52.1815 41.7956 50.2993 42.6238 49.2452C43.0756 48.6428 43.7532 48.3417 44.8826 48.6429C45.0834 48.6931 45.2842 48.7683 45.4849 48.8687C45.6857 48.9691 45.8865 49.0695 46.0873 49.1699C46.4386 49.3205 46.79 49.5213 47.1413 49.7722C47.3421 49.9228 47.5429 50.0734 47.7437 50.224C48.6472 50.9769 49.3248 51.9557 49.8518 53.085C50.4541 54.2144 50.8306 55.4191 51.1318 56.6237C51.2824 57.1256 51.4078 57.6025 51.5082 58.0542C51.5082 58.1295 51.5082 58.1295 51.5082 58.2048C51.5835 58.2801 51.5082 58.2048 51.5835 58.2048C51.5835 58.255 51.6086 58.2801 51.6588 58.2801C51.709 58.2801 51.7341 58.255 51.7341 58.2048Z" fill="black"/>
<path d="M47.4427 49.471C47.3925 49.4208 47.3423 49.3958 47.2921 49.3958C47.0662 49.3958 46.9156 49.471 46.6897 49.5463C46.3886 49.6969 46.0874 49.9228 45.8616 50.224C45.3345 50.9769 45.1086 52.0309 45.0333 52.7838C44.958 54.5155 45.3345 56.4731 46.1627 58.2048C46.5392 59.1083 47.0662 59.9365 47.6685 60.6141C48.2708 61.3168 48.9736 61.9191 49.7767 62.4211C49.852 62.4964 50.0026 62.4964 50.0778 62.3458C50.1531 62.2705 50.1531 62.1199 50.0778 62.0446C49.3249 61.5176 48.7226 60.84 48.1956 60.1624C47.6936 59.4596 47.2419 58.7067 46.8403 57.9036C46.0874 56.2472 45.6357 54.4402 45.711 52.7838C45.711 52.1815 45.8616 51.2027 46.238 50.5251C46.4388 50.2741 46.6646 50.0734 46.9156 49.9228C47.0662 49.7722 47.2168 49.7722 47.3674 49.6969C47.3674 49.6969 47.3674 49.6216 47.4427 49.6216C47.4929 49.5714 47.5179 49.5463 47.5179 49.5463C47.5179 49.4961 47.4929 49.471 47.4427 49.471Z" fill="black"/>
<path d="M106.697 60.7649C106.847 60.7649 106.847 60.7649 106.998 60.6896C107.45 60.3131 107.45 59.6355 107.676 59.1084C108.203 57.9791 108.654 56.8497 109.181 55.6451C109.633 54.5157 110.16 53.3863 110.763 52.3323C111.365 51.2029 112.042 50.0735 112.946 49.0947C113.197 48.8438 113.448 48.6179 113.699 48.4171C114.452 47.9654 115.355 47.6642 116.183 47.8148C116.936 47.9654 117.614 48.4924 117.915 49.4712C117.915 49.4712 117.94 49.4712 117.99 49.4712C117.765 48.116 116.711 47.4383 115.581 47.2878C114.753 47.1372 113.849 47.2125 113.021 47.6642C112.72 47.8148 112.419 48.0407 112.118 48.3418C110.763 49.6971 109.784 51.2782 109.031 52.9346C108.629 53.7377 108.303 54.5659 108.052 55.4192C107.6 56.6238 107.224 57.9038 106.847 59.1084C106.697 59.51 106.571 59.9367 106.471 60.3884C106.471 60.3884 106.396 60.4637 106.471 60.4637C106.471 60.6143 106.471 60.6143 106.546 60.7649C106.546 60.8151 106.571 60.8401 106.622 60.8401C106.672 60.8401 106.697 60.8151 106.697 60.7649Z" fill="black"/>
<path d="M110.988 49.9984C111.063 49.9984 111.063 50.0737 111.063 50.2243C111.013 50.2243 110.988 50.2494 110.988 50.2996C110.988 50.3498 111.013 50.3749 111.063 50.3749C111.063 50.5254 111.063 50.6007 111.063 50.6007C110.988 50.6007 110.837 50.4501 111.139 50.676C111.139 50.7513 111.214 50.676 111.289 50.676C112.117 50.8266 112.72 51.2031 113.171 51.7301C113.699 52.3324 113.924 53.0853 113.849 53.9135C113.699 55.1935 113.171 56.3229 112.419 57.3016C111.666 58.3557 110.687 59.2592 109.633 60.1627C109.482 60.238 109.482 60.3886 109.558 60.5391C109.708 60.6144 109.859 60.6144 109.934 60.5391C111.365 59.5604 112.644 58.5063 113.623 57.2263C114.276 56.2727 114.702 55.2186 114.903 54.0641C115.054 52.9348 114.753 51.8054 114 50.9772C113.322 50.2996 112.419 49.8478 111.365 49.9231C111.289 49.9231 111.139 49.8478 111.063 49.9231C110.837 50.2243 110.913 49.9984 110.988 49.9984Z" fill="black"/>
<path d="M82.3031 44.8784C82.3031 44.8032 82.4537 44.7279 82.2278 44.8784C82.1525 44.9537 82.1525 45.029 82.1525 45.1043C82.0019 45.7066 81.8513 46.309 81.7007 46.9113C81.3494 48.5677 81.1235 50.2241 81.0231 51.8805C80.9227 52.9848 80.8726 54.1141 80.8726 55.2686C80.9478 58.0544 81.249 60.7648 81.776 63.6259C81.8262 63.9271 81.9015 64.2533 82.0019 64.6047C82.0772 64.9811 82.2278 65.2823 82.3031 65.5835C82.3533 65.6337 82.4035 65.6588 82.4537 65.6588C82.4537 65.6588 82.4537 65.6337 82.4537 65.5835C82.4537 65.2823 82.5289 64.9058 82.5289 64.6047C82.4787 64.1027 82.4537 63.6008 82.4537 63.0988C82.3031 61.1413 82.2278 59.259 82.2278 57.3015C82.2278 56.0968 82.3031 54.8169 82.3784 53.6122C82.3784 52.4075 82.3784 51.1276 82.4537 49.9229C82.554 48.8689 82.6293 47.8399 82.6795 46.836C82.7297 46.3843 82.7799 45.9325 82.8301 45.4808C82.8301 45.3302 82.9054 45.1796 82.8301 45.029C82.6795 44.8784 82.7548 44.8784 82.7548 44.9537C82.7548 44.9537 82.7548 44.9537 82.6042 44.9537C82.6042 44.9035 82.5791 44.8784 82.5289 44.8784C82.4787 44.8282 82.4537 44.8282 82.4537 44.8784C82.3031 44.8784 82.3031 44.8784 82.3031 44.8784Z" fill="black"/>
<path d="M65.8892 55.8708C69.8043 55.8708 72.9666 59.0331 72.9666 62.9482C72.9666 66.8633 69.8043 70.0255 65.8892 70.0255C61.9741 70.0255 58.7366 66.8633 58.7366 62.9482C58.7366 59.0331 61.9741 55.8708 65.8892 55.8708Z" fill="#DF9E65"/>
<path d="M97.0598 55.8708C100.975 55.8708 104.137 59.0331 104.137 62.9482C104.137 66.8633 100.975 70.0255 97.0598 70.0255C93.1447 70.0255 89.9824 66.8633 89.9824 62.9482C89.9824 59.0331 93.1447 55.8708 97.0598 55.8708Z" fill="#DF9E65"/>
<path d="M93.7471 42.2432C93.2954 42.8455 93.2954 42.2432 93.2954 42.9961C93.2954 43.2972 93.5966 43.5231 93.7471 43.8243C94.0483 44.276 94.4248 44.6776 94.8765 45.0289C95.8553 45.7818 97.0599 46.1583 98.3399 46.3842C98.9422 46.4594 99.6198 46.4594 100.297 46.3842C101.803 46.2336 103.159 45.6312 104.288 44.5772C104.363 44.5019 104.438 44.3513 104.363 44.2007C104.288 44.1254 104.137 44.0501 103.987 44.1254C103.535 44.276 103.159 44.3513 102.707 44.5019C101.728 44.6525 100.749 44.5772 99.7704 44.3513C98.8167 44.2007 97.9133 43.8745 97.06 43.3725C96.809 43.2219 96.558 43.0714 96.307 42.9208C96.0812 42.6949 95.78 42.6196 95.4788 42.3937C95.3282 42.2933 95.1526 42.1679 94.9518 42.0173C94.8765 41.942 94.8012 41.8667 94.7259 41.8667C94.6506 41.8667 94.7259 41.8667 94.6506 41.8667C93.8977 42.0926 94.6506 41.942 93.8977 42.0926C93.8475 42.0424 93.7973 42.0424 93.7471 42.0926C93.6969 42.1428 93.6969 42.193 93.7471 42.2432Z" fill="#AC5154"/>
<path d="M70.9334 39.8341C70.9334 39.8341 70.8581 39.9094 70.6322 40.06C70.4817 40.1353 70.4064 40.3611 70.3311 40.5117C70.0299 40.9635 69.7288 41.4152 69.4276 41.7917C68.9006 42.3187 68.2982 42.7705 67.6206 43.1469C67.2693 43.3979 66.8928 43.5987 66.4912 43.7492C66.1399 43.8998 65.7634 44.0504 65.3619 44.201C63.7808 44.6527 62.1244 44.8786 60.2421 44.2763C60.1668 44.2763 60.0162 44.2763 59.9409 44.4269C59.9409 44.5022 59.9409 44.6527 60.0915 44.6527C61.3715 45.6315 62.7267 46.1586 64.1572 46.3844C65.2113 46.535 66.3407 46.3844 67.3195 46.0833C68.223 45.7821 69.0512 45.3304 69.8041 44.6527C70.8581 43.674 71.6863 42.4693 71.9875 41.0388C72.0628 40.8129 72.2134 40.587 72.0628 40.4364C71.7616 39.7588 72.0628 40.06 71.9875 40.2106C71.9875 40.2859 71.8369 40.2859 71.4605 40.1353C71.5107 40.0851 71.4855 40.0349 71.3852 39.9847C71.3852 39.9847 71.3099 39.9847 71.3099 40.06C70.557 40.06 71.0087 39.7588 70.9334 39.8341Z" fill="#AC5154"/>
<path d="M69.1274 50.9019C69.1274 50.7513 69.1274 50.6258 69.1274 50.5254C69.0521 49.9231 68.9016 49.396 68.6757 49.0949C68.5251 48.9443 68.2993 48.7937 68.0734 48.7937C67.8475 48.7937 67.6216 48.9443 67.471 49.0949C67.3204 49.3207 67.2452 49.6972 67.1699 49.8478C67.0946 50.2242 67.0193 51.203 67.3205 51.8053C67.4711 52.2571 67.8475 52.483 68.3745 52.4077C68.6757 52.4077 68.9769 52.1065 69.0522 51.6548C69.1274 51.4289 69.1274 51.1277 69.1274 50.9019Z" fill="black"/>
<path fill-rule="evenodd" clip-rule="evenodd" d="M97.2098 51.429C97.0592 51.8807 96.758 52.1066 96.4569 52.1819C96.231 52.1819 95.9298 52.1819 95.704 51.956C95.2522 51.7301 95.0264 51.2784 95.0264 50.7514C95.0264 50.149 95.2522 49.5467 95.4028 49.1703C95.5534 49.0197 95.704 48.7185 95.8545 48.4926C96.0553 48.2919 96.2561 48.2166 96.4569 48.2668C96.6576 48.2668 96.8333 48.342 96.9839 48.4926C97.1345 48.6432 97.2851 48.9444 97.2851 49.0197C97.4357 49.4714 97.5862 50.4502 97.3604 51.1278C97.3102 51.178 97.2851 51.2533 97.2851 51.3537C97.2349 51.4039 97.2098 51.429 97.2098 51.429ZM96.1557 50.6008H96.0804V50.6761C96.1306 50.6761 96.1557 50.651 96.1557 50.6008Z" fill="black"/>
<path d="M71.7619 54.1389C71.6113 54.2142 71.536 54.2895 71.3854 54.3648C71.1595 54.5154 70.9337 54.7412 70.7078 54.9671C70.1808 55.4189 69.729 55.7953 69.1267 56.0965C68.8255 56.2471 68.5244 56.3726 68.2232 56.4729C67.8467 56.6235 67.5456 56.6988 67.1691 56.7741C67.0939 56.7741 67.0186 56.7741 67.0186 56.9247C67.0186 57 67.0939 57 67.1691 57C67.5707 57.1004 67.9472 57.1255 68.2985 57.0753C68.9008 56.9247 69.5032 56.6988 69.9549 56.3976C70.482 56.0212 70.8584 55.6447 71.2348 55.193C71.3854 54.9922 71.5109 54.7914 71.6113 54.5907C71.6866 54.5154 71.7619 54.3648 71.8372 54.2142C71.8372 54.164 71.8372 54.1389 71.8372 54.1389C71.787 54.1389 71.7619 54.1389 71.7619 54.1389Z" fill="black"/>
<path d="M71.7627 56.0215C71.5368 56.1721 71.311 56.3227 71.1604 56.4733C70.8592 56.6992 70.558 57.0003 70.2569 57.2262C69.9557 57.4772 69.6295 57.7281 69.2781 57.9791C69.2028 57.9791 69.1275 58.0544 69.2028 58.1297C69.2028 58.205 69.3534 58.205 69.3534 58.205C69.9557 57.8285 70.4827 57.5273 71.0098 57.0756C71.3109 56.7744 71.5368 56.398 71.838 56.0215C71.7878 55.9713 71.7627 55.9713 71.7627 56.0215Z" fill="black"/>
<path d="M93.6722 53.7627C93.597 53.838 93.5969 53.9133 93.5969 53.9886C93.5969 54.0639 93.6722 54.2145 93.7475 54.2898C93.9734 54.5157 94.3499 54.7415 94.651 54.8921C95.2031 55.1431 95.7553 55.3188 96.3074 55.4192C96.6086 55.4693 96.9097 55.5195 97.2109 55.5697C97.512 55.5697 97.7379 55.4944 98.0391 55.4944C98.1897 55.5697 98.265 55.4944 98.265 55.3439C98.265 55.2686 98.1897 55.1933 98.1144 55.1933C97.8132 55.0427 97.4368 54.8921 97.1356 54.8168C96.6839 54.7415 96.2321 54.6662 95.7804 54.5909C95.4792 54.4906 95.178 54.4153 94.8769 54.3651C94.651 54.2898 94.3498 54.2145 94.124 54.0639C94.0236 54.0137 93.9232 53.9635 93.8228 53.9133C93.8228 53.838 93.7475 53.838 93.7475 53.7627C93.7475 53.7125 93.7224 53.7125 93.6722 53.7627Z" fill="black"/>
<path d="M92.618 56.0965C93.0697 56.2471 93.5215 56.473 93.9732 56.6236C94.3246 56.724 94.6508 56.7993 94.952 56.8494C95.0273 56.8494 95.1026 56.8494 95.1026 56.7742C95.1026 56.6989 95.1026 56.6236 95.0273 56.6236C94.5756 56.473 94.0485 56.3224 93.5968 56.2471C93.2956 56.1467 92.9694 56.0714 92.618 56.0212C92.618 56.0212 92.5929 56.0463 92.5427 56.0965C92.5427 56.0965 92.5678 56.0965 92.618 56.0965Z" fill="black"/>
<path fill-rule="evenodd" clip-rule="evenodd" d="M81.6254 69.9504C82.6042 69.7999 83.7336 69.9504 84.7123 70.2516C85.0888 70.4022 85.917 70.628 86.3688 71.0045C86.7452 71.2304 86.8958 71.6068 86.8958 71.9833C86.8205 72.5103 86.5946 72.8868 86.3688 73.1127C85.917 73.4891 85.3899 73.6397 84.7876 73.6397C84.4363 73.6899 84.0849 73.715 83.7336 73.715C82.4536 73.6397 81.0984 73.3385 79.8184 73.4891C79.3667 73.5644 78.3126 74.242 77.7103 74.1667C77.3338 74.1667 77.0326 74.0161 76.8821 73.6397C76.6562 73.2632 76.7315 72.8115 77.0327 72.3598C77.4844 71.7574 78.3879 71.2304 78.7643 71.0798L78.9149 70.9292C79.7431 70.3269 80.6466 70.0257 81.6254 69.9504ZM85.7664 72.2092L85.6911 72.2845V72.3598C85.7413 72.3096 85.7664 72.2594 85.7664 72.2092Z" fill="black"/>
<path d="M158.271 218.951C164.972 217.822 163.014 198.848 149.763 189.136C136.286 179.197 102.179 167.452 91.2617 168.657C87.9489 168.958 84.7114 173.024 89.2289 178.595C89.2289 178.595 116.484 226.179 158.271 218.951Z" fill="#DB9D66"/>
<path d="M96.608 172.572C96.608 172.572 91.8647 180.779 88.9283 177.993C85.6155 174.831 79.2158 166.172 79.8181 165.194C81.0228 163.387 83.2062 142.682 83.2062 142.682C83.2062 142.682 76.8818 137.411 75.3007 136.357C72.0632 134.174 73.3431 133.496 73.1172 133.496C73.0419 133.571 81.0228 137.336 81.0228 137.336C79.5922 136.433 78.0864 135.529 76.8065 134.4C76.0536 133.722 75.3007 132.894 74.9242 131.99C74.0207 130.033 75.1501 128.527 76.8818 128.903C81.851 129.958 89.4554 136.734 93.9728 139.369C95.4786 140.272 94.4999 156.46 96.608 172.572Z" fill="#DB9D66"/>
<path d="M74.2463 130.484C74.3969 130.635 74.6981 130.936 75.0746 131.162C75.8275 131.839 77.1074 132.592 78.4627 133.571C80.4202 134.776 82.6036 136.281 84.5612 137.486C86.2929 138.615 87.874 139.594 88.6269 140.121C88.6771 140.121 88.7022 140.096 88.7022 140.046C88.7524 140.046 88.7524 140.021 88.7022 139.971C87.874 139.444 86.2929 138.314 84.4859 137.034C81.2484 134.851 77.3333 132.291 75.3757 131.011C75.2753 130.911 75.1498 130.81 74.9992 130.71C74.7734 130.559 74.5475 130.484 74.3969 130.409C74.3467 130.359 74.2965 130.359 74.2463 130.409C74.2463 130.409 74.2463 130.434 74.2463 130.484Z" fill="black"/>
<path d="M75 128.828C75 128.979 75.0001 128.979 75.0754 129.054C75.2259 129.205 75.3765 129.28 75.5271 129.355C77.3341 130.56 79.1411 131.765 81.0233 132.894C82.8303 134.023 84.7126 135.153 86.5949 136.282C87.7995 136.96 89.0795 137.713 90.3594 138.39C90.4096 138.44 90.4347 138.44 90.4347 138.39C90.4849 138.34 90.4849 138.315 90.4347 138.315C88.9289 137.261 87.4231 136.282 85.9172 135.303C82.6797 133.195 79.4422 131.238 76.2047 129.28C75.9789 129.054 75.6777 128.828 75.3765 128.753C75.3012 128.678 75.2259 128.753 75.0754 128.753C75.0252 128.703 75 128.703 75 128.753C74.9499 128.803 74.9499 128.828 75 128.828Z" fill="black"/>
<path d="M79.2153 136.508C79.5165 136.658 79.7424 136.884 80.0435 137.035C81.7752 138.089 83.5822 139.067 85.3892 140.046C86.1421 140.498 86.9703 140.95 87.7232 141.326C87.7734 141.376 87.7985 141.376 87.7985 141.326C87.7985 141.276 87.7985 141.251 87.7985 141.251C87.4471 141 87.1209 140.774 86.8197 140.573C85.5398 139.67 84.1845 138.917 82.8293 138.089C81.9258 137.562 81.0223 137.035 80.0435 136.583C79.8176 136.508 79.5918 136.432 79.2906 136.357C79.2906 136.357 79.2655 136.357 79.2153 136.357C79.2153 136.407 79.2153 136.457 79.2153 136.508Z" fill="black"/>
<path d="M75.2256 123.482C75.2758 123.582 75.3511 123.658 75.4514 123.708C75.8279 124.084 76.5055 124.386 77.2584 124.913C79.5171 126.418 82.7547 128.602 85.4651 130.484C87.3474 131.689 89.0038 132.743 89.9826 133.27C89.9826 133.32 90.0077 133.32 90.0579 133.27C90.0579 133.27 90.0328 133.245 89.9826 133.195C89.1544 132.668 87.6486 131.614 85.9169 130.409C84.0346 129.054 81.7759 127.473 79.8183 126.193C78.2372 125.063 76.7314 124.084 75.8279 123.557C75.7526 123.482 75.602 123.407 75.5267 123.407C75.4765 123.407 75.4012 123.407 75.3009 123.407C75.3009 123.357 75.2758 123.357 75.2256 123.407C75.2256 123.457 75.2256 123.482 75.2256 123.482Z" fill="black"/>
<path d="M5.35471 224.674C5.35471 224.674 16.8743 227.685 34.5676 214.66C46.4636 205.851 72.1378 165.796 72.1378 165.796C72.1378 165.796 69.8038 156.912 60.0913 161.128C39.6121 170.012 -10.5317 179.951 5.35471 224.674Z" fill="#EDAF78"/>
<path d="M72.0629 165.57L54.2942 181.155L66.3407 141.326C66.3407 141.326 76.9568 134.927 85.7659 129.43C91.1115 126.042 93.1444 138.089 89.2292 141.627C80.1943 149.684 76.3545 155.105 76.3545 155.105L72.0629 165.57Z" fill="#EDAF78"/>
<path d="M97.1357 124.687C94.9773 125.891 92.819 127.121 90.6607 128.376C87.4482 130.233 84.2358 132.141 81.0234 134.098C77.9364 135.98 74.6989 137.712 71.9885 139.971C71.4614 140.423 70.9344 140.95 70.4074 141.477C69.3533 142.681 68.3745 144.112 67.6216 145.693C67.6216 145.743 67.6467 145.793 67.6969 145.844C67.7471 145.844 67.7722 145.818 67.7722 145.768C68.751 144.338 69.8803 143.133 71.0097 142.079C71.5116 141.577 72.0387 141.1 72.5908 140.648C75.226 138.314 78.3129 136.507 81.3246 134.55C83.9346 132.893 86.5698 131.237 89.2301 129.581C91.8402 127.974 94.5005 126.393 97.2109 124.837C97.2611 124.787 97.2862 124.737 97.2862 124.687C97.2361 124.687 97.1859 124.687 97.1357 124.687Z" fill="black"/>
<path d="M100.674 126.344C99.9215 126.795 99.1686 127.172 98.3404 127.624C97.211 128.301 96.0816 129.054 94.9523 129.732C92.6936 131.087 90.4348 132.442 88.2514 133.797C85.9927 135.153 83.8093 136.583 81.6258 138.089C79.2165 139.821 76.8072 141.628 74.6237 143.66C73.6449 144.639 72.6662 145.693 71.7627 146.747C71.3611 147.199 70.9847 147.676 70.6333 148.178C70.6333 148.253 70.6333 148.329 70.7086 148.329C70.7086 148.404 70.7839 148.404 70.8592 148.329C71.2105 147.927 71.587 147.525 71.9885 147.124C72.9422 146.22 73.8959 145.317 74.8496 144.413C76.2049 143.209 77.6354 142.054 79.1412 140.95C82.0022 138.767 85.0892 136.809 88.2514 134.851C90.2843 133.572 92.3924 132.292 94.4253 131.012C95.7805 130.183 97.0604 129.355 98.3404 128.452C99.1686 127.774 99.9968 127.096 100.825 126.419C100.825 126.419 100.825 126.394 100.825 126.344C100.775 126.293 100.725 126.293 100.674 126.344Z" fill="black"/>
<path d="M100.599 131.087C100.524 131.087 100.524 131.011 100.448 131.011C100.223 131.011 99.9967 131.237 99.7708 131.388C97.5874 132.517 95.4792 133.797 93.3711 135.228C89.983 137.487 86.6702 140.046 83.2821 142.38C80.8728 144.112 78.3129 145.919 76.0542 148.027C75.1507 148.855 74.2472 149.759 73.5696 150.738C73.0425 151.34 72.6661 152.093 72.2896 152.846C72.2143 152.921 72.2143 152.996 72.2896 153.072C72.3649 153.072 72.5155 153.072 72.5908 152.996C73.0426 152.394 73.4943 151.867 74.0213 151.265C75.1507 149.985 76.4306 148.78 77.7859 147.575C79.6681 145.919 81.7763 144.413 83.7339 143.058C87.0467 140.649 90.3595 138.089 93.7476 135.755C95.8055 134.299 97.8885 132.944 99.9967 131.689C100.223 131.614 100.448 131.539 100.599 131.313C100.674 131.313 100.599 131.313 100.674 131.237C100.674 131.187 100.674 131.137 100.674 131.087C100.674 131.087 100.649 131.087 100.599 131.087Z" fill="black"/>
<path d="M81.5504 3.84478C81.5504 3.84478 64.8358 2.18837 54.7469 12.5785C49.0247 18.3006 43.4532 32.9071 49.3259 44.1255C68.751 35.7682 99.9967 19.6559 99.9967 19.6559L113.474 43.222C113.474 43.222 124.617 0.908432 81.5504 3.84478Z" fill="#AC5154"/>
</svg>
